<?xml version="1.0" encoding="UTF-8" standalone="no"?>
<svg width="208px" height="42px" viewBox="0 0 208 42" version="1.1" xmlns="http://www.w3.org/2000/svg" xmlns:xlink="http://www.w3.org/1999/xlink" xmlns:sketch="http://www.bohemiancoding.com/sketch/ns">
    <!-- Generator: Sketch 3.3.2 (12043) - http://www.bohemiancoding.com/sketch -->
    <title>Group</title>
    <desc>Created with Sketch.</desc>
    <defs></defs>
    <g id="Page-1" stroke="none" stroke-width="1" fill="none" fill-rule="evenodd" sketch:type="MSPage">
        <path d="M29.6660908,1 L50.5647911,1 C51.6727522,1 52.4467645,1.89153983 52.2927628,2.99729162 L47.2781694,39.0027084 C47.1245407,40.1057821 46.1017583,41 44.9938589,41 L3.0061411,41 C1.89817996,41 1.1241677,40.1084602 1.27816941,39.0027084 L3.6461928,22 L24.7352103,22 C25.8431097,22 26.8658921,21.1057821 27.0195208,20.0027084 L29.6660908,1 Z" id="Rectangle-1" fill="#4CB2E6" sketch:type="MSShapeGroup"></path>
        <path d="M22.8000031,21 L3.80000305,21 L4.05039295,19 L23.0503929,19 L22.8000031,21 Z" id="Rectangle-1-Copy-2" fill="#B31940" sketch:type="MSShapeGroup"></path>
        <circle id="Oval-1" fill="#000000" sketch:type="MSShapeGroup" cx="25" cy="20" r="1"></circle>
        <path d="M25.5837493,36 L25,40 L23,40 L23.5837493,36 L25.5837493,36 Z" id="Rectangle-2" fill="#FFFFFF" sketch:type="MSShapeGroup"></path>
        <path d="M48.9200063,20 L48.5961361,22 L44.6000061,22 L44.9238763,20 L48.9200063,20 Z" id="Rectangle-2" fill="#FFFFFF" sketch:type="MSShapeGroup"></path>
        <path d="M14.0455235,36 L13,40 L12,40 L13.0455235,36 L14.0455235,36 Z" id="Rectangle-2" fill="#FFFFFF" sketch:type="MSShapeGroup"></path>
        <path d="M41.0455235,2 L40,6 L39,6 L40.0455235,2 L41.0455235,2 Z" id="Rectangle-2-Copy" fill="#FFFFFF" sketch:type="MSShapeGroup"></path>
        <rect id="Rectangle-2" fill="#FFFFFF" sketch:type="MSShapeGroup" x="35" y="36" width="1" height="4"></rect>
        <path d="M7.30000305,30.4272786 L3.30000305,30.9600423 L3.51625061,29.9312401 L7.51625061,29.3984764 L7.30000305,30.4272786 Z" id="Rectangle-3" fill="#FFFFFF" sketch:type="MSShapeGroup"></path>
        <path d="M50.2635695,10.5288022 L46.2600098,11.0615659 L46.4764498,10.0327637 L50.4800096,9.5 L50.2635695,10.5288022 Z" id="Rectangle-3-Copy" fill="#FFFFFF" sketch:type="MSShapeGroup"></path>
        <path d="M47,30.8951009 L43,30.4755046 L43.1389961,29.4900851 L47.1389961,29.9096815 L47,30.8951009 Z" id="Rectangle-3" fill="#FFFFFF" sketch:type="MSShapeGroup"></path>
        <path d="M55.25,41 L60.876,1.328 L58.092,1.328 L52.524,41 L55.25,41 Z M85.994,41 L91.562,1.328 L88.952,1.328 L85.414,26.268 C84.718,31.488 84.37,35.142 84.196,38.332 L69.696,1.328 L66.158,1.328 L60.59,41 L63.2,41 L66.506,17.51 C67.492,10.492 67.898,7.07 67.956,3.88 L82.514,41 L85.994,41 Z M115.752,3.706 L116.448,1.328 L96.844,1.328 L91.276,41 L111.228,41 L111.576,38.622 L94.35,38.622 L96.786,21.512 L111.054,21.512 L111.344,19.134 L97.076,19.134 L99.222,3.706 L115.752,3.706 Z M141.594,10.26 C141.594,4.286 137.708,1.328 129.182,1.328 L119.96,1.328 L114.392,41 L117.118,41 L119.67,22.846 L128.312,22.846 L136.374,41 L139.448,41 L130.98,22.44 C139.042,20.7 141.594,15.306 141.594,10.26 L141.594,10.26 Z M127.21,20.526 L119.96,20.526 L122.338,3.706 L129.298,3.706 C136.026,3.706 138.694,5.794 138.694,10.144 C138.694,14.784 136.142,20.526 127.21,20.526 L127.21,20.526 Z M168.436,3.822 L169.132,1.328 L142.394,1.328 L142.046,3.822 L153.878,3.822 L148.658,41 L151.442,41 L156.662,3.822 L168.436,3.822 Z M168.54,41 L174.166,1.328 L171.382,1.328 L165.814,41 L168.54,41 Z M196.6,29.864 L198.688,41 L201.53,41 L193.758,1.328 L190.336,1.328 L171.37,41 L174.212,41 L179.432,29.864 L196.6,29.864 Z M196.136,27.428 L180.592,27.428 L191.728,3.59 L196.136,27.428 Z" id="INERTIA" fill="#000000" sketch:type="MSShapeGroup"></path>
    </g>
</svg>