<?xml version="1.0" encoding="UTF-8" standalone="no"?>
<svg width="201px" height="40px" viewBox="0 0 201 40" version="1.1" xmlns="http://www.w3.org/2000/svg" xmlns:xlink="http://www.w3.org/1999/xlink" xmlns:sketch="http://www.bohemiancoding.com/sketch/ns">
    <!-- Generator: Sketch 3.3.2 (12043) - http://www.bohemiancoding.com/sketch -->
    <title>logo</title>
    <desc>Created with Sketch.</desc>
    <defs></defs>
    <g id="Page-1" stroke="none" stroke-width="1" fill="none" fill-rule="evenodd" sketch:type="MSPage">
        <g id="logo" sketch:type="MSArtboardGroup">
            <path d="M51.0499992,3.52134785 C51.0579288,3.64285642 51.052999,3.76861166 51.0341142,3.89742704 L46.0195208,38.102573 C45.8658921,39.150493 44.8431097,40 43.7352103,40 L1.7474925,40 C0.746295685,40 0.0177892663,39.3084012 0.000321050943,38.4 L0,38.4 L0,36.5 L0.254463576,36.5 L2.23361055,23 L23.4765617,23 C24.5844611,23 25.6072435,22.1057821 25.7608722,21.0027084 L28.4074422,2 L28.4074422,2 L43.0499992,2 L43.0499992,1.64999998 L51.0499992,1.64999998 L51.0499992,3.52134785 Z" id="Rectangle-1-Copy-3" fill="#367FA5" sketch:type="MSShapeGroup"></path>
            <path d="M28.4074422,-1.70530257e-13 L49.3061425,-1.70530257e-13 C50.4141036,-1.70530257e-13 51.1881159,0.846962836 51.0341142,1.89742704 L46.0195208,36.102573 C45.8658921,37.150493 44.8431097,38 43.7352103,38 L1.7474925,38 C0.639531363,38 -0.134480903,37.1530372 0.0195208042,36.102573 L2.23361055,21 L23.4765617,21 C24.5844611,21 25.6072435,20.1057821 25.7608722,19.0027084 L28.4074422,-1.67421632e-13 Z" id="Rectangle-1" fill="#4CB2E6" sketch:type="MSShapeGroup"></path>
            <path d="M23.6494924,20 L2.53999996,20 L2.79038986,18 L23.6494932,18 L23.6494924,20 Z" id="Rectangle-1-Copy-2" fill="#B31940" sketch:type="MSShapeGroup"></path>
            <circle id="Oval-1" fill="#000000" sketch:type="MSShapeGroup" cx="23.7399998" cy="19" r="1.5"></circle>
            <path d="M24.5837493,33 L24,37 L22,37 L22.5837493,33 L24.5837493,33 Z" id="Rectangle-2" fill="#FFFFFF" sketch:type="MSShapeGroup"></path>
            <path d="M47.9200063,19 L47.5961361,21 L43.6000061,21 L43.9238763,19 L47.9200063,19 Z" id="Rectangle-2" fill="#FFFFFF" sketch:type="MSShapeGroup"></path>
            <path d="M13.0455235,33 L12,37 L11,37 L12.0455235,33 L13.0455235,33 Z" id="Rectangle-2" fill="#FFFFFF" sketch:type="MSShapeGroup"></path>
            <path d="M40.0455235,1 L39,5 L38,5 L39.0455235,1 L40.0455235,1 Z" id="Rectangle-2-Copy" fill="#FFFFFF" sketch:type="MSShapeGroup"></path>
            <rect id="Rectangle-2" fill="#FFFFFF" sketch:type="MSShapeGroup" x="34" y="33" width="1" height="4"></rect>
            <path d="M6.30000305,29.4272786 L2.30000305,29.9600423 L2.51625061,28.9312401 L6.51625061,28.3984764 L6.30000305,29.4272786 Z" id="Rectangle-3" fill="#FFFFFF" sketch:type="MSShapeGroup"></path>
            <path d="M49.2635695,9.52880221 L45.2600098,10.0615659 L45.4764498,9.03276367 L49.4800096,8.5 L49.2635695,9.52880221 Z" id="Rectangle-3-Copy" fill="#FFFFFF" sketch:type="MSShapeGroup"></path>
            <path d="M46,29.8951009 L42,29.4755046 L42.1389961,28.4900851 L46.1389961,28.9096815 L46,29.8951009 Z" id="Rectangle-3" fill="#FFFFFF" sketch:type="MSShapeGroup"></path>
            <path d="M54.25,40 L59.876,0.328 L57.092,0.328 L51.524,40 L54.25,40 Z M84.994,40 L90.562,0.328 L87.952,0.328 L84.414,25.268 C83.718,30.488 83.37,34.142 83.196,37.332 L68.696,0.328 L65.158,0.328 L59.59,40 L62.2,40 L65.506,16.51 C66.492,9.492 66.898,6.07 66.956,2.88 L81.514,40 L84.994,40 Z M114.752,2.706 L115.448,0.328 L95.844,0.328 L90.276,40 L110.228,40 L110.576,37.622 L93.35,37.622 L95.786,20.512 L110.054,20.512 L110.344,18.134 L96.076,18.134 L98.222,2.706 L114.752,2.706 Z M140.594,9.26 C140.594,3.286 136.708,0.328 128.182,0.328 L118.96,0.328 L113.392,40 L116.118,40 L118.67,21.846 L127.312,21.846 L135.374,40 L138.448,40 L129.98,21.44 C138.042,19.7 140.594,14.306 140.594,9.26 L140.594,9.26 Z M126.21,19.526 L118.96,19.526 L121.338,2.706 L128.298,2.706 C135.026,2.706 137.694,4.794 137.694,9.144 C137.694,13.784 135.142,19.526 126.21,19.526 L126.21,19.526 Z M167.436,2.822 L168.132,0.328 L141.394,0.328 L141.046,2.822 L152.878,2.822 L147.658,40 L150.442,40 L155.662,2.822 L167.436,2.822 Z M167.54,40 L173.166,0.328 L170.382,0.328 L164.814,40 L167.54,40 Z M195.6,28.864 L197.688,40 L200.53,40 L192.758,0.328 L189.336,0.328 L170.37,40 L173.212,40 L178.432,28.864 L195.6,28.864 Z M195.136,26.428 L179.592,26.428 L190.728,2.59 L195.136,26.428 Z" id="INERTIA" fill="#000000" sketch:type="MSShapeGroup"></path>
        </g>
    </g>
</svg>